<svg xmlns="http://www.w3.org/2000/svg" xmlns:xlink="http://www.w3.org/1999/xlink" version="1.1" x="0px" y="0px" viewBox="0 0 51 9" enable-background="new 0 0 51 9" xml:space="preserve"><style>.style0{fill:	#FFFFFF;}</style><path d="M33.1 5.5h4.4l0.4-1.8h-4.4l0.3-1.5H39l0.5-2h-7.8l-2 8.6h7.8l0.5-2h-5.2L33.1 5.5z M43 0.2h-2.5l-2 8.6h8 l0.5-2.1h-5.5L43 0.2z M3 4.5c0.3-1.2 1.7-2.3 3.5-2.3H10l0.5-2H7.2c-1.4 0-2.9 0.3-4.2 1.1C1.6 2.1 0.7 3.4 0.4 4.5 c-0.5 2.2 1.3 4.3 4.4 4.3h3.7l0.5-2H5.4C3.7 6.8 2.7 5.7 3 4.5z M16.1 0.2c-3 0-5.9 2-6.4 4.3c-0.5 2.4 1.4 4.3 4.4 4.3 c3 0 5.9-2 6.4-4.3C21.1 2.2 19.1 0.2 16.1 0.2z M18 4.5c-0.3 1.3-1.8 2.3-3.4 2.3c-1.6 0-2.6-1-2.4-2.3c0.3-1.2 1.8-2.3 3.4-2.3 C17.2 2.2 18.3 3.3 18 4.5z M30.3 2.8c0.4-1.5-1-2.6-3-2.6h-7.2c0.1 0.1 0.3 0.2 0.4 0.4c0.5 0.5 0.8 1 1.1 1.6h5.5 c0.6 0 0.9 0.1 0.7 0.5c-0.1 0.4-1 0.7-1.7 0.8c-0.8 0.1-1.7 0.3-2.3 0.4c-1.9 0.5-2.7 1-4.6 4.8l2.9 0C23.1 7 23.6 6.4 24.3 6 c0.2 0.1 0.4 0.3 0.6 0.4c1.4 0.9 1.1 1.7 0.9 2.4h2.9c0.4-1.6-0.6-2.6-1.8-3.3C28.6 5.1 29.9 4.5 30.3 2.8z M46.8 0.5h0.7v1.8h0.3 V0.5h0.7V0.3h-1.6V0.5z M50.3 0.3l-0.5 1.4c0 0.1-0.1 0.3-0.1 0.3c0-0.1-0.1-0.2-0.1-0.3l-0.5-1.4h-0.4v2H49V0.6l0.6 1.7h0.2 l0.6-1.7v1.7h0.3v-2H50.3z" class="style0"/><g></g><g></g><g></g><g></g><g></g><g></g><g></g><g></g><g></g><g></g><g></g><g></g><g></g><g></g><g></g></svg>