<svg xmlns="http://www.w3.org/2000/svg" xmlns:xlink="http://www.w3.org/1999/xlink" version="1.1" x="0px" y="0px" viewBox="0 0 24 24" enable-background="new 0 0 24 24" xml:space="preserve"><style>.style0{fill:	#CCCCCC;}</style><path d="M3 3C-1 6.9-1 13.3 3 17.2c3.2 3.2 8.1 3.8 12 1.7l4.5 4.5c0.8 0.8 2.1 0.8 3 0l1-1c0.8-0.8 0.8-2.1 0-3 l-4.5-4.5c2.1-3.8 1.5-8.7-1.7-12C13.3-1 6.9-1 3 3z M15.1 15.1c-2.8 2.7-7.2 2.7-10 0c-2.8-2.8-2.8-7.2 0-10c2.8-2.7 7.2-2.7 10 0 C17.8 7.9 17.8 12.3 15.1 15.1z" class="style0"/><g></g><g></g><g></g><g></g><g></g><g></g><g></g><g></g><g></g><g></g><g></g><g></g><g></g><g></g><g></g></svg>